<?xml version="1.0" encoding="utf-8" standalone="no"?>
<!DOCTYPE svg PUBLIC "-//W3C//DTD SVG 1.1//EN"
  "http://www.w3.org/Graphics/SVG/1.1/DTD/svg11.dtd">
<svg xmlns:xlink="http://www.w3.org/1999/xlink" width="1152pt" height="648pt" viewBox="0 0 1152 648" xmlns="http://www.w3.org/2000/svg" version="1.1">
 <metadata>
  <rdf:RDF xmlns:dc="http://purl.org/dc/elements/1.1/" xmlns:cc="http://creativecommons.org/ns#" xmlns:rdf="http://www.w3.org/1999/02/22-rdf-syntax-ns#">
   <cc:Work>
    <dc:type rdf:resource="http://purl.org/dc/dcmitype/StillImage"/>
    <dc:date>2026-10-01T15:33:18.588484</dc:date>
    <dc:format>image/svg+xml</dc:format>
    <dc:creator>
     <cc:Agent>
      <dc:title>Matplotlib v3.11.0, https://matplotlib.org/</dc:title>
     </cc:Agent>
    </dc:creator>
   </cc:Work>
  </rdf:RDF>
 </metadata>
 <defs>
  <style type="text/css">*{stroke-linejoin: round; stroke-linecap: butt}</style>
 </defs>
 <g id="figure_1">
  <g id="patch_1">
   <path d="M 0 648
L 1152 648
L 1152 0
L 0 0
z
" style="fill: #ffffff"/>
  </g>
  <g id="axes_1">
   <g id="line2d_1">
    <path d="M 710.784 154.616087
L 506.88 178.488
" clip-path="url(#pf1d7c2805d)" style="fill: none; stroke: #667889; stroke-width: 1.3; stroke-linecap: square"/>
   </g>
   <g id="line2d_2">
    <path d="M 624.384 233.008952
L 271.872 258.3504
" clip-path="url(#pf1d7c2805d)" style="fill: none; stroke-dasharray: 4.81,2.08; stroke-dashoffset: 0; stroke: #648fac; stroke-width: 1.3"/>
   </g>
   <g id="line2d_3">
    <path d="M 624.384 249.6272
L 569.088 258.3504
" clip-path="url(#pf1d7c2805d)" style="fill: none; stroke-dasharray: 4.81,2.08; stroke-dashoffset: 0; stroke: #648fac; stroke-width: 1.3"/>
   </g>
   <g id="line2d_4">
    <path d="M 857.544828 251.244
L 866.304 258.3504
" clip-path="url(#pf1d7c2805d)" style="fill: none; stroke-dasharray: 4.81,2.08; stroke-dashoffset: 0; stroke: #648fac; stroke-width: 1.3"/>
   </g>
   <g id="patch_2">
    <path d="M 197.843906 141.264
Q 204.480578 141.264 209.663806 141.264
" clip-path="url(#pf1d7c2805d)" style="fill: none; stroke: #667889; stroke-width: 1.3; stroke-linecap: round"/>
    <path d="M 204.863806 138.864
L 209.663806 141.264
L 204.863806 143.664
z
" clip-path="url(#pf1d7c2805d)" style="fill: #667889; stroke: #667889; stroke-width: 1.3; stroke-linecap: round"/>
   </g>
   <g id="patch_3">
    <path d="M 681.680953 141.264
Q 695.232415 141.264 707.330432 141.264
" clip-path="url(#pf1d7c2805d)" style="fill: none; stroke: #667889; stroke-width: 1.3; stroke-linecap: round"/>
    <path d="M 702.530432 138.864
L 707.330432 141.264
L 702.530432 143.664
z
" clip-path="url(#pf1d7c2805d)" style="fill: #667889; stroke: #667889; stroke-width: 1.3; stroke-linecap: round"/>
   </g>
   <g id="patch_4">
    <path d="M 292.068935 171.49239
Q 285.544704 178.48911 280.011694 184.422824
" clip-path="url(#pf1d7c2805d)" style="fill: none; stroke: #667889; stroke-width: 1.3; stroke-linecap: round"/>
    <path d="M 285.04049 182.549001
L 280.011694 184.422824
L 281.529913 179.275494
z
" clip-path="url(#pf1d7c2805d)" style="fill: #667889; stroke: #667889; stroke-width: 1.3; stroke-linecap: round"/>
   </g>
   <g id="patch_5">
    <path d="M 504.89993 178.798211
Q 470.590842 184.173301 437.717684 189.32343
" clip-path="url(#pf1d7c2805d)" style="fill: none; stroke: #667889; stroke-width: 1.3; stroke-linecap: round"/>
    <path d="M 442.831308 190.95157
L 437.717684 189.32343
L 442.088371 186.209414
z
" clip-path="url(#pf1d7c2805d)" style="fill: #667889; stroke: #667889; stroke-width: 1.3; stroke-linecap: round"/>
   </g>
   <g id="patch_6">
    <path d="M 185.744953 324
Q 199.296415 324 211.394432 324
" clip-path="url(#pf1d7c2805d)" style="fill: none; stroke: #667889; stroke-width: 1.3; stroke-linecap: round"/>
    <path d="M 206.594432 321.6
L 211.394432 324
L 206.594432 326.4
z
" clip-path="url(#pf1d7c2805d)" style="fill: #667889; stroke: #667889; stroke-width: 1.3; stroke-linecap: round"/>
   </g>
   <g id="patch_7">
    <path d="M 330.896953 324
Q 344.448415 324 356.546432 324
" clip-path="url(#pf1d7c2805d)" style="fill: none; stroke: #667889; stroke-width: 1.3; stroke-linecap: round"/>
    <path d="M 351.746432 321.6
L 356.546432 324
L 351.746432 326.4
z
" clip-path="url(#pf1d7c2805d)" style="fill: #667889; stroke: #667889; stroke-width: 1.3; stroke-linecap: round"/>
   </g>
   <g id="patch_8">
    <path d="M 489.871266 324
Q 499.96663 324 508.60855 324
" clip-path="url(#pf1d7c2805d)" style="fill: none; stroke: #667889; stroke-width: 1.3; stroke-linecap: round"/>
    <path d="M 503.80855 321.6
L 508.60855 324
L 503.80855 326.4
z
" clip-path="url(#pf1d7c2805d)" style="fill: #667889; stroke: #667889; stroke-width: 1.3; stroke-linecap: round"/>
   </g>
   <g id="patch_9">
    <path d="M 628.111266 324
Q 638.20663 324 646.84855 324
" clip-path="url(#pf1d7c2805d)" style="fill: none; stroke: #667889; stroke-width: 1.3; stroke-linecap: round"/>
    <path d="M 642.04855 321.6
L 646.84855 324
L 642.04855 326.4
z
" clip-path="url(#pf1d7c2805d)" style="fill: #667889; stroke: #667889; stroke-width: 1.3; stroke-linecap: round"/>
   </g>
   <g id="patch_10">
    <path d="M 780.176953 324
Q 793.728415 324 805.826432 324
" clip-path="url(#pf1d7c2805d)" style="fill: none; stroke: #667889; stroke-width: 1.3; stroke-linecap: round"/>
    <path d="M 801.026432 321.6
L 805.826432 324
L 801.026432 326.4
z
" clip-path="url(#pf1d7c2805d)" style="fill: #667889; stroke: #667889; stroke-width: 1.3; stroke-linecap: round"/>
   </g>
   <g id="patch_11">
    <path d="M 925.328953 324
Q 938.880415 324 950.978432 324
" clip-path="url(#pf1d7c2805d)" style="fill: none; stroke: #667889; stroke-width: 1.3; stroke-linecap: round"/>
    <path d="M 946.178432 321.6
L 950.978432 324
L 946.178432 326.4
z
" clip-path="url(#pf1d7c2805d)" style="fill: #667889; stroke: #667889; stroke-width: 1.3; stroke-linecap: round"/>
   </g>
   <g id="patch_12">
    <path d="M 271.872 260.351471
Q 271.872 276.287668 271.872 290.770421
" clip-path="url(#pf1d7c2805d)" style="fill: none; stroke-dasharray: 4.81,2.08; stroke-dashoffset: 0; stroke: #648fac; stroke-width: 1.3; stroke-linecap: round"/>
    <path d="M 274.272 285.970421
L 271.872 290.770421
L 269.472 285.970421
z
" clip-path="url(#pf1d7c2805d)" style="fill: #648fac; stroke-dasharray: 4.81,2.08; stroke-dashoffset: 0; stroke: #648fac; stroke-width: 1.3; stroke-linecap: round"/>
   </g>
   <g id="patch_13">
    <path d="M 569.088 260.351471
Q 569.088 276.287668 569.088 290.770421
" clip-path="url(#pf1d7c2805d)" style="fill: none; stroke-dasharray: 4.81,2.08; stroke-dashoffset: 0; stroke: #648fac; stroke-width: 1.3; stroke-linecap: round"/>
    <path d="M 571.488 285.970421
L 569.088 290.770421
L 566.688 285.970421
z
" clip-path="url(#pf1d7c2805d)" style="fill: #648fac; stroke-dasharray: 4.81,2.08; stroke-dashoffset: 0; stroke: #648fac; stroke-width: 1.3; stroke-linecap: round"/>
   </g>
   <g id="patch_14">
    <path d="M 866.304 260.351471
Q 866.304 276.287668 866.304 290.770421
" clip-path="url(#pf1d7c2805d)" style="fill: none; stroke-dasharray: 4.81,2.08; stroke-dashoffset: 0; stroke: #648fac; stroke-width: 1.3; stroke-linecap: round"/>
    <path d="M 868.704 285.970421
L 866.304 290.770421
L 863.904 285.970421
z
" clip-path="url(#pf1d7c2805d)" style="fill: #648fac; stroke-dasharray: 4.81,2.08; stroke-dashoffset: 0; stroke: #648fac; stroke-width: 1.3; stroke-linecap: round"/>
   </g>
   <g id="patch_15">
    <path d="M 206.945951 252.513516
Q 188.899439 267.318566 171.976618 281.201758
" clip-path="url(#pf1d7c2805d)" style="fill: none; stroke: #667889; stroke-width: 1.3; stroke-linecap: round"/>
    <path d="M 177.209823 280.012821
L 171.976618 281.201758
L 174.165391 276.301833
z
" clip-path="url(#pf1d7c2805d)" style="fill: #667889; stroke: #667889; stroke-width: 1.3; stroke-linecap: round"/>
   </g>
   <g id="patch_16">
    <path d="M 368.426241 365.810235
Q 326.218809 397.601089 285.172344 428.517497
" clip-path="url(#pf1d7c2805d)" style="fill: none; stroke: #667889; stroke-width: 1.3; stroke-linecap: round"/>
    <path d="M 290.450367 427.546685
L 285.172344 428.517497
L 287.562508 423.712592
z
" clip-path="url(#pf1d7c2805d)" style="fill: #667889; stroke: #667889; stroke-width: 1.3; stroke-linecap: round"/>
   </g>
   <g id="patch_17">
    <path d="M 441.280716 366.458418
Q 452.274863 393.371175 462.719358 418.938428
" clip-path="url(#pf1d7c2805d)" style="fill: none; stroke: #667889; stroke-width: 1.3; stroke-linecap: round"/>
    <path d="M 463.125893 413.587285
L 462.719358 418.938428
L 458.682365 415.402514
z
" clip-path="url(#pf1d7c2805d)" style="fill: #667889; stroke: #667889; stroke-width: 1.3; stroke-linecap: round"/>
   </g>
   <g id="patch_18">
    <path d="M 1011.844257 366.585546
Q 1007.093049 397.600377 1002.561928 427.178524
" clip-path="url(#pf1d7c2805d)" style="fill: none; stroke: #667889; stroke-width: 1.3; stroke-linecap: round"/>
    <path d="M 1005.661093 422.797294
L 1002.561928 427.178524
L 1000.916443 422.070454
z
" clip-path="url(#pf1d7c2805d)" style="fill: #667889; stroke: #667889; stroke-width: 1.3; stroke-linecap: round"/>
   </g>
   <g id="patch_19">
    <path d="M 997.632 490.12158
Q 997.632 512.655567 997.632 533.736109
" clip-path="url(#pf1d7c2805d)" style="fill: none; stroke: #667889; stroke-width: 1.3; stroke-linecap: round"/>
    <path d="M 1000.032 528.936109
L 997.632 533.736109
L 995.232 528.936109
z
" clip-path="url(#pf1d7c2805d)" style="fill: #667889; stroke: #667889; stroke-width: 1.3; stroke-linecap: round"/>
   </g>
   <g id="patch_20">
    <path d="M 479.232 535.194316
Q 479.232 516.890708 479.232 500.040543
" clip-path="url(#pf1d7c2805d)" style="fill: none; stroke-dasharray: 4.81,2.08; stroke-dashoffset: 0; stroke: #cf8d51; stroke-width: 1.3; stroke-linecap: round"/>
    <path d="M 476.832 504.840543
L 479.232 500.040543
L 481.632 504.840543
z
" clip-path="url(#pf1d7c2805d)" style="fill: #cf8d51; stroke-dasharray: 4.81,2.08; stroke-dashoffset: 0; stroke: #cf8d51; stroke-width: 1.3; stroke-linecap: round"/>
   </g>
   <g id="patch_21">
    <path d="M 489.701693 353.270716
Q 575.655981 391.526886 660.282407 429.192056
" clip-path="url(#pf1d7c2805d)" style="fill: none; stroke: #667889; stroke-width: 1.3; stroke-linecap: round"/>
    <path d="M 656.873028 425.047646
L 660.282407 429.192056
L 654.921251 429.432914
z
" clip-path="url(#pf1d7c2805d)" style="fill: #667889; stroke: #667889; stroke-width: 1.3; stroke-linecap: round"/>
   </g>
   <g id="patch_22">
    <path d="M 728.064 535.19442
Q 728.064 512.660433 728.064 491.579891
" clip-path="url(#pf1d7c2805d)" style="fill: none; stroke-dasharray: 4.81,2.08; stroke-dashoffset: 0; stroke: #cf8d51; stroke-width: 1.3; stroke-linecap: round"/>
    <path d="M 725.664 496.379891
L 728.064 491.579891
L 730.464 496.379891
z
" clip-path="url(#pf1d7c2805d)" style="fill: #cf8d51; stroke-dasharray: 4.81,2.08; stroke-dashoffset: 0; stroke: #cf8d51; stroke-width: 1.3; stroke-linecap: round"/>
   </g>
   <g id="text_1">
    <text style="font-weight: 700; font-size: 21px; font-family: 'Noto Sans CJK JP'; text-anchor: start; fill: #18324a" x="36.864" y="46.7265" transform="rotate(-0 36.864 46.7265)">V3  病理辅助 B-report 版</text>
   </g>
   <g id="text_2">
    <text style="font-size: 10.6px; font-family: 'Noto Sans CJK JP'; text-anchor: start; fill: #526373" x="36.864" y="80.625" transform="rotate(-0 36.864 80.625)">Timeline H128＋S1四概念头｜7,182,086参数｜弱标签辅助，不是概念瓶颈</text>
   </g>
   <g id="patch_23">
    <path d="M 56.9088 172.0584
L 189.6192 172.0584
Q 197.9136 172.0584 197.9136 163.9368
L 197.9136 118.5912
Q 197.9136 110.4696 189.6192 110.4696
L 56.9088 110.4696
Q 48.6144 110.4696 48.6144 118.5912
L 48.6144 163.9368
Q 48.6144 172.0584 56.9088 172.0584
z
" clip-path="url(#pf1d7c2805d)" style="fill: #ecf3fb; stroke: #6d94bb; stroke-width: 1.4; stroke-linejoin: miter"/>
   </g>
   <g id="patch_24">
    <path d="M 219.3408 172.0584
L 421.1712 172.0584
Q 429.4656 172.0584 429.4656 163.9368
L 429.4656 118.5912
Q 429.4656 110.4696 421.1712 110.4696
L 219.3408 110.4696
Q 211.0464 110.4696 211.0464 118.5912
L 211.0464 163.9368
Q 211.0464 172.0584 219.3408 172.0584
z
" clip-path="url(#pf1d7c2805d)" style="fill: #f0f3f7; stroke: #7b8c9f; stroke-width: 1.4; stroke-linejoin: miter"/>
   </g>
   <g id="patch_25">
    <path d="M 520.0128 172.0584
L 673.4592 172.0584
Q 681.7536 172.0584 681.7536 163.9368
L 681.7536 118.5912
Q 681.7536 110.4696 673.4592 110.4696
L 520.0128 110.4696
Q 511.7184 110.4696 511.7184 118.5912
L 511.7184 163.9368
Q 511.7184 172.0584 520.0128 172.0584
z
" clip-path="url(#pf1d7c2805d)" style="fill: #ecf3fb; stroke: #6d94bb; stroke-width: 1.4; stroke-linejoin: miter"/>
   </g>
   <g id="patch_26">
    <path d="M 717.0048 172.0584
L 932.6592 172.0584
Q 940.9536 172.0584 940.9536 163.9368
L 940.9536 118.5912
Q 940.9536 110.4696 932.6592 110.4696
L 717.0048 110.4696
Q 708.7104 110.4696 708.7104 118.5912
L 708.7104 163.9368
Q 708.7104 172.0584 717.0048 172.0584
z
" clip-path="url(#pf1d7c2805d)" style="fill: #f0f3f7; stroke: #7b8c9f; stroke-width: 1.4; stroke-linejoin: miter"/>
   </g>
   <g id="patch_27">
    <path d="M 67.2768 253.2744
L 428.0832 253.2744
Q 436.3776 253.2744 436.3776 245.1528
L 436.3776 193.0392
Q 436.3776 184.9176 428.0832 184.9176
L 67.2768 184.9176
Q 58.9824 184.9176 58.9824 193.0392
L 58.9824 245.1528
Q 58.9824 253.2744 67.2768 253.2744
z
" clip-path="url(#pf1d7c2805d)" style="fill: #f0f3f7; stroke: #7b8c9f; stroke-width: 1.4; stroke-linejoin: miter"/>
   </g>
   <g id="patch_28">
    <path d="M 62.0928 366.6384
L 177.5232 366.6384
Q 185.8176 366.6384 185.8176 358.5168
L 185.8176 289.4832
Q 185.8176 281.3616 177.5232 281.3616
L 62.0928 281.3616
Q 53.7984 281.3616 53.7984 289.4832
L 53.7984 358.5168
Q 53.7984 366.6384 62.0928 366.6384
z
" clip-path="url(#pf1d7c2805d)" style="fill: #e2f3ec; stroke: #328b6b; stroke-width: 1.4; stroke-linejoin: miter"/>
   </g>
   <g id="patch_29">
    <path d="M 366.2208 366.6384
L 481.6512 366.6384
Q 489.9456 366.6384 489.9456 358.5168
L 489.9456 289.4832
Q 489.9456 281.3616 481.6512 281.3616
L 366.2208 281.3616
Q 357.9264 281.3616 357.9264 289.4832
L 357.9264 358.5168
Q 357.9264 366.6384 366.2208 366.6384
z
" clip-path="url(#pf1d7c2805d)" style="fill: #e2f3ec; stroke: #328b6b; stroke-width: 1.4; stroke-linejoin: miter"/>
   </g>
   <g id="patch_30">
    <path d="M 656.5248 366.6384
L 771.9552 366.6384
Q 780.2496 366.6384 780.2496 358.5168
L 780.2496 289.4832
Q 780.2496 281.3616 771.9552 281.3616
L 656.5248 281.3616
Q 648.2304 281.3616 648.2304 289.4832
L 648.2304 358.5168
Q 648.2304 366.6384 656.5248 366.6384
z
" clip-path="url(#pf1d7c2805d)" style="fill: #e2f3ec; stroke: #328b6b; stroke-width: 1.4; stroke-linejoin: miter"/>
   </g>
   <g id="patch_31">
    <path d="M 960.6528 366.6384
L 1076.0832 366.6384
Q 1084.3776 366.6384 1084.3776 358.5168
L 1084.3776 289.4832
Q 1084.3776 281.3616 1076.0832 281.3616
L 960.6528 281.3616
Q 952.3584 281.3616 952.3584 289.4832
L 952.3584 358.5168
Q 952.3584 366.6384 960.6528 366.6384
z
" clip-path="url(#pf1d7c2805d)" style="fill: #e2f3ec; stroke: #328b6b; stroke-width: 1.4; stroke-linejoin: miter"/>
   </g>
   <g id="patch_32">
    <path d="M 221.0688 355.8096
L 322.6752 355.8096
Q 330.9696 355.8096 330.9696 347.688
L 330.9696 300.312
Q 330.9696 292.1904 322.6752 292.1904
L 221.0688 292.1904
Q 212.7744 292.1904 212.7744 300.312
L 212.7744 347.688
Q 212.7744 355.8096 221.0688 355.8096
z
" clip-path="url(#pf1d7c2805d)" style="fill: #f0f3f7; stroke: #7b8c9f; stroke-width: 1.4; stroke-linejoin: miter"/>
   </g>
   <g id="patch_33">
    <path d="M 518.2848 355.8096
L 619.8912 355.8096
Q 628.1856 355.8096 628.1856 347.688
L 628.1856 300.312
Q 628.1856 292.1904 619.8912 292.1904
L 518.2848 292.1904
Q 509.9904 292.1904 509.9904 300.312
L 509.9904 347.688
Q 509.9904 355.8096 518.2848 355.8096
z
" clip-path="url(#pf1d7c2805d)" style="fill: #f0f3f7; stroke: #7b8c9f; stroke-width: 1.4; stroke-linejoin: miter"/>
   </g>
   <g id="patch_34">
    <path d="M 815.5008 355.8096
L 917.1072 355.8096
Q 925.4016 355.8096 925.4016 347.688
L 925.4016 300.312
Q 925.4016 292.1904 917.1072 292.1904
L 815.5008 292.1904
Q 807.2064 292.1904 807.2064 300.312
L 807.2064 347.688
Q 807.2064 355.8096 815.5008 355.8096
z
" clip-path="url(#pf1d7c2805d)" style="fill: #f0f3f7; stroke: #7b8c9f; stroke-width: 1.4; stroke-linejoin: miter"/>
   </g>
   <g id="patch_35">
    <path d="M 630.6048 253.2744
L 1005.2352 253.2744
Q 1013.5296 253.2744 1013.5296 245.1528
L 1013.5296 193.0392
Q 1013.5296 184.9176 1005.2352 184.9176
L 630.6048 184.9176
Q 622.3104 184.9176 622.3104 193.0392
L 622.3104 245.1528
Q 622.3104 253.2744 630.6048 253.2744
z
" clip-path="url(#pf1d7c2805d)" style="fill: #ecf3fb; stroke: #6d94bb; stroke-width: 1.4; stroke-linejoin: miter"/>
   </g>
   <g id="patch_36">
    <path d="M 160.5888 490.1544
L 327.8592 490.1544
Q 336.1536 490.1544 336.1536 482.0328
L 336.1536 436.6872
Q 336.1536 428.5656 327.8592 428.5656
L 160.5888 428.5656
Q 152.2944 428.5656 152.2944 436.6872
L 152.2944 482.0328
Q 152.2944 490.1544 160.5888 490.1544
z
" clip-path="url(#pf1d7c2805d)" style="fill: #f7eedb; stroke: #b9903b; stroke-width: 1.4; stroke-linejoin: miter"/>
   </g>
   <g id="patch_37">
    <path d="M 378.3168 498.6144
L 580.1472 498.6144
Q 588.4416 498.6144 588.4416 490.4928
L 588.4416 428.2272
Q 588.4416 420.1056 580.1472 420.1056
L 378.3168 420.1056
Q 370.0224 420.1056 370.0224 428.2272
L 370.0224 490.4928
Q 370.0224 498.6144 378.3168 498.6144
z
" clip-path="url(#pf1d7c2805d)" style="fill: #f7eedb; stroke: #b9903b; stroke-width: 1.4; stroke-linejoin: miter"/>
   </g>
   <g id="patch_38">
    <path d="M 896.7168 490.1544
L 1098.5472 490.1544
Q 1106.8416 490.1544 1106.8416 482.0328
L 1106.8416 436.6872
Q 1106.8416 428.5656 1098.5472 428.5656
L 896.7168 428.5656
Q 888.4224 428.5656 888.4224 436.6872
L 888.4224 482.0328
Q 888.4224 490.1544 896.7168 490.1544
z
" clip-path="url(#pf1d7c2805d)" style="fill: #f7eedb; stroke: #b9903b; stroke-width: 1.4; stroke-linejoin: miter"/>
   </g>
   <g id="patch_39">
    <path d="M 896.7168 586.5984
L 1098.5472 586.5984
Q 1106.8416 586.5984 1106.8416 578.4768
L 1106.8416 543.2832
Q 1106.8416 535.1616 1098.5472 535.1616
L 896.7168 535.1616
Q 888.4224 535.1616 888.4224 543.2832
L 888.4224 578.4768
Q 888.4224 586.5984 896.7168 586.5984
z
" clip-path="url(#pf1d7c2805d)" style="fill: #e7eefb; stroke: #537cba; stroke-width: 1.4; stroke-linejoin: miter"/>
   </g>
   <g id="patch_40">
    <path d="M 357.5808 586.5984
L 600.8832 586.5984
Q 609.1776 586.5984 609.1776 578.4768
L 609.1776 543.2832
Q 609.1776 535.1616 600.8832 535.1616
L 357.5808 535.1616
Q 349.2864 535.1616 349.2864 543.2832
L 349.2864 578.4768
Q 349.2864 586.5984 357.5808 586.5984
z
" clip-path="url(#pf1d7c2805d)" style="fill: #fff2e8; stroke: #d38b52; stroke-width: 1.4; stroke-linejoin: miter"/>
   </g>
   <g id="patch_41">
    <path d="M 623.6928 490.1544
L 832.4352 490.1544
Q 840.7296 490.1544 840.7296 482.0328
L 840.7296 436.6872
Q 840.7296 428.5656 832.4352 428.5656
L 623.6928 428.5656
Q 615.3984 428.5656 615.3984 436.6872
L 615.3984 482.0328
Q 615.3984 490.1544 623.6928 490.1544
z
" clip-path="url(#pf1d7c2805d)" style="fill: #f3eafa; stroke: #9460b2; stroke-width: 1.4; stroke-linejoin: miter"/>
   </g>
   <g id="patch_42">
    <path d="M 620.2368 586.5984
L 835.8912 586.5984
Q 844.1856 586.5984 844.1856 578.4768
L 844.1856 543.2832
Q 844.1856 535.1616 835.8912 535.1616
L 620.2368 535.1616
Q 611.9424 535.1616 611.9424 543.2832
L 611.9424 578.4768
Q 611.9424 586.5984 620.2368 586.5984
z
" clip-path="url(#pf1d7c2805d)" style="fill: #fff2e8; stroke: #d38b52; stroke-width: 1.4; stroke-linejoin: miter"/>
   </g>
   <g id="text_3">
    <text style="font-size: 10px; font-family: 'Noto Sans CJK JP'; text-anchor: start; fill: #465568" x="40.32" y="612.056" transform="rotate(-0 40.32 612.056)">病理概念头没有接入复发必经路径；本版尚非概念瓶颈，标本指标也不是术后体内残留。</text>
   </g>
   <g id="text_4">
    <text style="font-size: 11px; font-family: 'Noto Sans CJK JP'; fill: #173044" transform="translate(101.285484 139.944)">CT0 缓存</text>
    <text style="font-size: 11px; font-family: 'Noto Sans CJK JP'; fill: #173044" transform="translate(102.5015 150.944)">27×768</text>
   </g>
   <g id="text_5">
    <text style="font-size: 11px; font-family: 'Noto Sans CJK JP'; fill: #173044" transform="translate(268.941 139.944)">768→128＋位置编码</text>
    <text style="font-size: 11px; font-family: 'Noto Sans CJK JP'; fill: #173044" transform="translate(271.998656 150.944)">保留27个空间token</text>
   </g>
   <g id="text_6">
    <text style="font-size: 11px; font-family: 'Noto Sans CJK JP'; fill: #173044" transform="translate(563.736 139.944)">六项基线临床</text>
    <text style="font-size: 11px; font-family: 'Noto Sans CJK JP'; fill: #173044" transform="translate(574.131 150.944)">编码32列</text>
   </g>
   <g id="text_7">
    <text style="font-size: 11px; font-family: 'Noto Sans CJK JP'; fill: #173044" transform="translate(782.345359 139.944)">字段Transformer</text>
    <text style="font-size: 11px; font-family: 'Noto Sans CJK JP'; fill: #173044" transform="translate(779.622 150.944)">集合池化→4×128</text>
   </g>
   <g id="text_8">
    <text style="font-size: 11px; font-family: 'Noto Sans CJK JP'; fill: #173044" transform="translate(192.68 217.776)">空间融合＋初始化记忆</text>
    <text style="font-size: 11px; font-family: 'Noto Sans CJK JP'; fill: #173044" transform="translate(186.575 228.776)">初始化2层；事件更新3层</text>
   </g>
   <g id="text_9">
    <text style="font-size: 9.8px; font-family: 'Noto Sans CJK JP'; fill: #173044" transform="translate(114.168406 312.734594)">S0</text>
    <text style="font-size: 9.8px; font-family: 'Noto Sans CJK JP'; fill: #173044" transform="translate(110.008 322.534594)">基线</text>
    <text style="font-size: 9.8px; font-family: 'Noto Sans CJK JP'; fill: #173044" transform="translate(98.355953 332.334594)">Z27×128</text>
    <text style="font-size: 9.8px; font-family: 'Noto Sans CJK JP'; fill: #173044" transform="translate(77.030234 342.134594)">M4×128 / C4×128</text>
   </g>
   <g id="text_10">
    <text style="font-size: 9.8px; font-family: 'Noto Sans CJK JP'; fill: #173044" transform="translate(418.296406 312.734594)">S1</text>
    <text style="font-size: 9.8px; font-family: 'Noto Sans CJK JP'; fill: #173044" transform="translate(389.636 322.534594)">新辅助后／术前</text>
    <text style="font-size: 9.8px; font-family: 'Noto Sans CJK JP'; fill: #173044" transform="translate(402.483953 332.334594)">Z27×128</text>
    <text style="font-size: 9.8px; font-family: 'Noto Sans CJK JP'; fill: #173044" transform="translate(381.158234 342.134594)">M4×128 / C4×128</text>
   </g>
   <g id="text_11">
    <text style="font-size: 9.8px; font-family: 'Noto Sans CJK JP'; fill: #173044" transform="translate(708.600406 312.734594)">S2</text>
    <text style="font-size: 9.8px; font-family: 'Noto Sans CJK JP'; fill: #173044" transform="translate(699.54 322.534594)">手术后</text>
    <text style="font-size: 9.8px; font-family: 'Noto Sans CJK JP'; fill: #173044" transform="translate(692.787953 332.334594)">Z27×128</text>
    <text style="font-size: 9.8px; font-family: 'Noto Sans CJK JP'; fill: #173044" transform="translate(671.462234 342.134594)">M4×128 / C4×128</text>
   </g>
   <g id="text_12">
    <text style="font-size: 9.8px; font-family: 'Noto Sans CJK JP'; fill: #173044" transform="translate(1012.728406 312.734594)">S3</text>
    <text style="font-size: 9.8px; font-family: 'Noto Sans CJK JP'; fill: #173044" transform="translate(988.968 322.534594)">末次治疗阶段</text>
    <text style="font-size: 9.8px; font-family: 'Noto Sans CJK JP'; fill: #173044" transform="translate(996.915953 332.334594)">Z27×128</text>
    <text style="font-size: 9.8px; font-family: 'Noto Sans CJK JP'; fill: #173044" transform="translate(975.590234 342.134594)">M4×128 / C4×128</text>
   </g>
   <g id="text_13">
    <text style="font-size: 9.6px; font-family: 'Noto Sans CJK JP'; fill: #173044" transform="translate(246.3165 322.3245)">EventJump</text>
    <text style="font-size: 9.6px; font-family: 'Noto Sans CJK JP'; fill: #173044" transform="translate(243.072 332.9715)">共享空间更新</text>
   </g>
   <g id="text_14">
    <text style="font-size: 9.6px; font-family: 'Noto Sans CJK JP'; fill: #173044" transform="translate(543.5325 322.3245)">EventJump</text>
    <text style="font-size: 9.6px; font-family: 'Noto Sans CJK JP'; fill: #173044" transform="translate(540.288 332.9715)">共享空间更新</text>
   </g>
   <g id="text_15">
    <text style="font-size: 9.6px; font-family: 'Noto Sans CJK JP'; fill: #173044" transform="translate(840.7485 322.3245)">EventJump</text>
    <text style="font-size: 9.6px; font-family: 'Noto Sans CJK JP'; fill: #173044" transform="translate(837.504 332.9715)">共享空间更新</text>
   </g>
   <g id="text_16">
    <text style="font-size: 10.4px; font-family: 'Noto Sans CJK JP'; fill: #173044" transform="translate(724.32 217.848)">三个事实事件：新辅助／手术／术后治疗</text>
    <text style="font-size: 10.4px; font-family: 'Noto Sans CJK JP'; fill: #173044" transform="translate(745.12 228.248)">各段只使用截至该段的事件信息</text>
   </g>
   <g id="text_17">
    <text style="font-size: 11px; font-family: 'Noto Sans CJK JP'; fill: #173044" transform="translate(217.312672 457.440156)">独立pCR头</text>
    <text style="font-size: 11px; font-family: 'Noto Sans CJK JP'; fill: #173044" transform="translate(221.393844 469.639844)">仅适用S1</text>
   </g>
   <g id="text_18">
    <text style="font-size: 10.3px; font-family: 'Noto Sans CJK JP'; fill: #173044" transform="translate(449.506039 452.582922)">CT1特征预测</text>
    <text style="font-size: 10.3px; font-family: 'Noto Sans CJK JP'; fill: #173044" transform="translate(436.256055 462.882922)">另对齐mean(S1.Z)</text>
    <text style="font-size: 10.3px; font-family: 'Noto Sans CJK JP'; fill: #173044" transform="translate(443.491 473.965078)">本组三臂均λ=.1</text>
   </g>
   <g id="text_19">
    <text style="font-size: 11px; font-family: 'Noto Sans CJK JP'; fill: #173044" transform="translate(974.801844 458.04)">S3复发头</text>
    <text style="font-size: 11px; font-family: 'Noto Sans CJK JP'; fill: #173044" transform="translate(964.340672 469.04)">读取Z＋M＋C</text>
   </g>
   <g id="text_20">
    <text style="font-size: 11px; font-family: 'Noto Sans CJK JP'; text-anchor: middle; fill: #173044" x="997.632" y="565.06" transform="rotate(-0 997.632 565.06)">事实S3复发BCE</text>
   </g>
   <g id="text_21">
    <text style="font-size: 10px; font-family: 'Noto Sans CJK JP'; text-anchor: middle; fill: #173044" x="479.232" y="564.68" transform="rotate(-0 479.232 564.68)">真实CT1：仅训练目标</text>
   </g>
   <g id="text_22">
    <text style="font-size: 10px; font-family: 'Noto Sans CJK JP'; fill: #173044" transform="translate(680.289 457.614688)">新增：4项病理辅助头</text>
    <text style="font-size: 10px; font-family: 'Noto Sans CJK JP'; fill: #173044" transform="translate(679.888219 467.614688)">S1 → pool → Linear4</text>
   </g>
   <g id="text_23">
    <text style="font-size: 9.4px; font-family: 'Noto Sans CJK JP'; text-anchor: middle; fill: #173044" x="728.064" y="564.452" transform="rotate(-0 728.064 564.452)">切除标本：迟到的S1监督</text>
   </g>
  </g>
 </g>
 <defs>
  <clipPath id="pf1d7c2805d">
   <rect x="23.04" y="19.44" width="1105.92" height="609.12"/>
  </clipPath>
 </defs>
</svg>
